Coordinates
version=1
nRows=16
nColumns=36
inDegrees=yes

Units are S.I. units (second, meters, Newtons, ...)
If the header above contains a line with 'inDegrees', this indicates whether rotational values are in degrees (yes) or radians (no).

endheader
time	pelvis_tilt	pelvis_list	pelvis_rotation	pelvis_tx	pelvis_ty	pelvis_tz	hip_flexion_r	hip_adduction_r	hip_rotation_r	knee_angle_r	knee_angle_r_beta	ankle_angle_r	subtalar_angle_r	mtp_angle_r	hip_flexion_l	hip_adduction_l	hip_rotation_l	knee_angle_l	knee_angle_l_beta	ankle_angle_l	subtalar_angle_l	mtp_angle_l	lumbar_extension	lumbar_bending	lumbar_rotation	arm_flex_r	arm_add_r	arm_rot_r	elbow_flex_r	pro_sup_r	arm_flex_l	arm_add_l	arm_rot_l	elbow_flex_l	pro_sup_l
      4.43333330	     -8.09014972	     -2.81736882	      8.21945100	      0.66582129	      0.97969857	     -0.17208644	      7.71235535	     -2.75628976	     -4.38053100	     11.95230940	      0.20860715	      9.38325841	    -18.52096977	     -7.49999987	     10.64475206	     -5.70739686	      5.23998364	     11.37267053	      0.19849055	      9.86416381	    -10.01778789	     -7.49999987	     -5.73344889	      0.64462412	     -1.82509748	     -3.11844787	    -17.94967267	      7.38071724	    131.68844648	     87.63975922	     -2.47672764	    -12.09792113	     16.27347674	    134.35880864	     88.35873592
      4.45000000	     -7.85392894	     -2.82585134	      8.43262492	      0.66898911	      0.98457304	     -0.17462298	      7.01085270	     -2.75315813	     -4.28854032	     11.40209250	      0.19900406	      8.92931645	    -19.02176852	     -7.49999987	     10.02025623	     -5.59169874	      5.91993678	     10.87515503	      0.18980726	      9.80695974	    -10.47117706	     -7.49999987	     -5.40216241	      0.38752323	     -1.32308488	     -8.08940960	    -17.05132687	      5.42755469	    131.26288143	     88.16916696	     -2.60397133	    -12.40939741	     17.97461278	    132.89325203	     88.59953295
      4.46666670	     -7.81117803	     -2.77414024	      8.45257523	      0.66849627	      0.98316249	     -0.17405455	      6.61201567	     -2.85896869	     -4.21770201	     10.98366126	      0.19170105	      8.39659200	    -19.68758676	     -7.49999987	      9.72867760	     -5.43674492	      6.16327034	     10.64804017	      0.18584336	      9.89310732	    -10.79302145	     -7.49999987	     -5.18101833	      0.13873739	     -1.64750924	    -10.59505015	    -17.17662822	      5.33692766	    130.43900417	     86.07036525	     -3.00020453	    -12.86619798	     18.50383467	    132.34653773	     86.50866159
      4.48333330	     -7.91915379	     -2.68897154	      8.47634810	      0.66531675	      0.98855742	     -0.17670072	      6.52477209	     -3.08939040	     -4.20328918	     10.52132433	      0.18363175	      7.62532860	    -20.03090344	     -7.49999987	      9.62852771	     -5.12521872	      6.89497110	     10.23241474	      0.17858933	      9.24391550	    -11.97531883	     -7.49999987	     -4.91189631	     -0.07651660	     -0.48228493	    -13.75529906	    -17.39324934	      3.78774051	    129.50292385	     86.57172980	     -1.86448947	    -13.23144016	     20.62914007	    130.18547411	     87.26305401
      4.50000000	     -7.73641936	     -2.58457438	      8.56772933	      0.66857754	      0.99006956	     -0.17856147	      6.03270208	     -3.24223689	     -4.15167516	      9.93151395	      0.17333762	      7.12105368	    -19.94071984	     -7.49999987	      9.23907459	     -4.91215022	      7.12270643	      9.94583874	      0.17358763	      9.19404422	    -11.88805626	     -7.49999987	     -5.07801121	     -0.20704586	     -0.41085835	    -15.55797144	    -18.16729219	      3.80828654	    127.63557633	     84.76720318	     -1.81223658	    -13.35609400	     21.16906477	    128.72266642	     85.47321131
      4.51666670	     -7.60808143	     -2.55838858	      8.53003164	      0.67219877	      0.99433711	     -0.17494224	      5.60219765	     -3.17837692	     -3.99377610	      9.31797910	      0.16262941	      7.00718243	    -19.23105255	     -7.49999987	      8.81166326	     -4.88379402	      7.41294935	      9.55502858	      0.16676671	      8.77738099	    -12.25458614	     -7.49999987	     -5.19807460	     -0.32744996	      0.75905426	    -18.36751656	    -18.23305031	      2.65542915	    125.99217390	     85.86521482	     -1.05590956	    -13.51936891	     22.91528447	    126.38098162	     86.57709966
      4.53333330	     -7.47084829	     -2.58191397	      8.54737357	      0.66863477	      0.99122667	     -0.17685863	      5.42522660	     -3.10892815	     -3.70437597	      9.07160651	      0.15832940	      6.92773114	    -18.99871377	     -7.49999987	      8.57985225	     -4.86464849	      7.60051256	      9.38977483	      0.16388249	      8.71866632	    -12.33287131	     -7.49999987	     -5.46429568	     -0.27855564	      0.81325316	    -19.70653192	    -18.86862121	      2.93152354	    123.93764391	     85.90377618	     -1.47756547	    -13.56519246	     23.31634118	    124.91445890	     86.60002675
      4.55000000	     -7.29278630	     -2.52593189	      8.33262183	      0.66941192	      0.99463868	     -0.17564334	      5.20827135	     -3.10802338	     -3.47212298	      8.91369005	      0.15557324	      6.60691577	    -18.95065804	     -7.49999987	      8.24949400	     -4.86166407	      7.59586412	      9.18903273	      0.16037888	      8.41230547	    -12.52604687	     -7.49999987	     -5.59139271	     -0.34094280	      1.01704417	    -20.82007019	    -19.36937746	      3.24388997	    121.64812367	     84.90357842	     -1.53211316	    -13.62272980	     23.91697061	    122.72629752	     85.57839104
      4.56666670	     -7.20224907	     -2.59049970	      8.06286536	      0.66890614	      0.99204032	     -0.17566231	      5.11245866	     -2.95576443	     -3.09427954	      8.81320526	      0.15381945	      6.65598677	    -19.03180543	     -7.49999987	      8.06122705	     -4.93599806	      7.67458322	      9.04440293	      0.15785461	      8.18681353	    -13.04266515	     -7.49999987	     -5.58853326	     -0.21852190	      1.89157347	    -22.81890180	    -19.60431077	      2.73896769	    120.54606215	     85.14859164	     -0.97526810	    -13.80124786	     25.41159234	    120.71487675	     85.41382323
      4.58333330	     -6.99961268	     -2.68126370	      7.84100659	      0.66817214	      0.98849164	     -0.17677413	      5.04741587	     -2.83102125	     -3.08810266	      8.92223707	      0.15572241	      7.16143896	    -18.53121437	     -7.49999987	      7.85801886	     -5.07634460	      7.33319274	      9.09146477	      0.15867599	      8.55608148	    -12.50017146	     -7.49999987	     -5.79013607	      0.01425596	      1.83602355	    -23.67631059	    -20.27453575	      3.64082801	    120.08552202	     83.28129365	     -0.80551788	    -13.81788904	     26.13567991	    119.91651277	     83.35831440
      4.60000000	     -6.97652351	     -2.84103335	      7.54202771	      0.66799288	      0.98673397	     -0.17690899	      5.24269910	     -2.61361730	     -2.28204279	      9.14382874	      0.15958992	      6.92579067	    -19.83409226	     -7.49999987	      7.86257655	     -5.23099774	      7.50562700	      9.15929644	      0.15985988	      8.43040705	    -13.32256938	     -7.49999987	     -5.63252387	      0.24241052	      2.50430910	    -25.09368752	    -20.66856119	      3.51173429	    119.86290013	     88.65485409	      0.23650519	    -13.68980912	     26.91821073	    118.63647728	     86.67213348
      4.61666670	     -6.88892828	     -2.97292981	      7.43503922	      0.67123018	      0.98545581	     -0.17537055	      5.30067538	     -2.41753775	     -1.90815006	      9.43914164	      0.16474410	      7.03021219	    -20.28184866	     -7.49999987	      7.78590228	     -5.41883052	      7.60721156	      9.30086202	      0.16233067	      8.40054603	    -13.68384389	     -7.49999987	     -5.49882919	      0.32648660	      2.80846741	    -26.10649021	    -21.05443241	      4.28940219	    120.09730451	     89.54232945	      1.00735107	    -13.67206776	     28.07128692	    117.99589178	     86.65548438
      4.63333330	     -6.77995625	     -2.97899615	      7.37644725	      0.67443719	      0.98758467	     -0.17750804	      5.06169991	     -2.39102796	     -1.65627356	      9.47400898	      0.16535265	      7.02008229	    -20.49037722	     -7.49999987	      7.52735550	     -5.47348021	      7.64139280	      9.24214814	      0.16130592	      8.26341780	    -13.83593680	     -7.49999987	     -5.29095177	      0.18712819	      2.80311842	    -26.73107880	    -21.49503830	      5.45058278	    120.15587355	     89.72007331	      1.36950930	    -13.48720892	     29.05615691	    117.33781607	     86.70287475
      4.65000000	     -6.83075906	     -2.94087007	      7.20116623	      0.67103351	      0.98732477	     -0.17554623	      5.07084696	     -2.39088582	     -1.30841896	      9.36347325	      0.16342344	      6.97883066	    -20.57002334	     -7.49999987	      7.41473172	     -5.46988533	      7.61647649	      9.06146403	      0.15815238	      8.14967698	    -14.10098349	     -7.49999987	     -5.05710247	     -0.02742300	      3.02510042	    -27.11927580	    -21.79950521	      6.36560599	    120.36141024	     89.89169448	      1.69802278	    -13.17678963	     29.76426643	    116.82625959	     86.72472339
      4.66666670	     -6.84068233	     -2.90145311	      7.14840540	      0.67075273	      0.98312575	     -0.17617154	      5.04899403	     -2.40758930	     -0.95758581	      9.27970679	      0.16196144	      6.92453336	    -20.87938804	     -7.49999987	      7.28939706	     -5.42745216	      7.77354135	      8.88650545	      0.15509878	      7.99193305	    -14.58041313	     -7.49999987	     -4.85186822	     -0.21423730	      3.33091904	    -27.54785394	    -21.91039010	      6.71937049	    120.90744497	     89.53147340	      2.13646636	    -12.99236153	     30.96842959	    116.13009191	     85.88584032
      4.68333330	     -6.87811750	     -2.87954473	      7.04295770	      0.67415914	      0.98620505	     -0.17752280	      5.03651140	     -2.46405350	     -0.77743313	      9.19730787	      0.16052330	      6.93150989	    -20.87192303	     -7.49999987	      7.09787142	     -5.40579949	      7.69822353	      8.62757307	      0.15057956	      8.08187116	    -14.59551429	     -7.49999987	     -4.68681719	     -0.30298569	      3.15317395	    -27.71420066	    -21.78480129	      6.92320602	    121.05543846	     89.60481873	      1.94176233	    -12.79993779	     31.30162621	    115.80383747	     85.90564072
